# xmcd
#
# Track frame offsets: 
#        150
#        21647
#        42689
#        57572
#        82291
#        101639
#        113129
#        136656
#        152126
#        169673
#        186180
#        207210
#        231394
#        256404
#
# Disc length: 3647 seconds
#
# Revision: 0
# Processed by: cddbd v1.5.2PL0 Copyright (c) Steve Scherf et al.
# Submitted via: ExactAudioCopy v0.95b4
#
DISCID=cf0e3d0e
DTITLE=Clarolyn Maier - Sessions
DYEAR=2000
DGENRE=Blues
TTITLE0=Our Love Is Here To Stay
TTITLE1=I Remember You
TTITLE2=Home Again
TTITLE3=Dindi
TTITLE4=Easy
TTITLE5=I'll String Along With You
TTITLE6=But Beautiful
TTITLE7=I've Got You Under My Skin
TTITLE8=With One More Look At You
TTITLE9=I Know You Are With Him
TTITLE10=Autumn Leaves
TTITLE11=Unusual Way
TTITLE12=Angel Eyes
TTITLE13=To Make You Feel My Love
EXTD=
EXTT0=
EXTT1=
EXTT2=
EXTT3=
EXTT4=
EXTT5=
EXTT6=
EXTT7=
EXTT8=
EXTT9=
EXTT10=
EXTT11=
EXTT12=
EXTT13=
PLAYORDER=
